{
	"asset":{
		"generator":"Khronos glTF Blender I/O v5.0.21",
		"version":"2.0"
	},
	"scene":0,
	"scenes":[
		{
			"name":"Scene",
			"nodes":[
				0,
				1,
				2,
				3,
				4,
				5,
				6,
				7
			]
		}
	],
	"nodes":[
		{
			"mesh":0,
			"name":"Cube",
			"scale":[
				0.4543263912200928,
				1,
				0.05700182914733887
			]
		},
		{
			"extras":{
				"center_x":-0.04543263837695122,
				"center_z":0.0,
				"center_y":1.1175870895385742e-08,
				"collision":"bodyonly-c"
			},
			"mesh":1,
			"name":"Cylinder",
			"rotation":[
				0.7071068286895752,
				0,
				0,
				0.7071068286895752
			],
			"translation":[
				0,
				0.11999999731779099,
				0.011400366201996803
			]
		},
		{
			"extras":{
				"center_x":-0.04543263837695122,
				"center_z":0.0,
				"center_y":5.587935447692871e-09,
				"collision":"bodyonly-c"
			},
			"mesh":2,
			"name":"Cylinder.001",
			"rotation":[
				0.7071068286895752,
				0,
				0,
				0.7071068286895752
			],
			"translation":[
				0,
				0.03999999910593033,
				0.011400366201996803
			]
		},
		{
			"extras":{
				"center_x":-0.04543263837695122,
				"center_z":0.0,
				"center_y":6.51925802230835e-09,
				"collision":"bodyonly-c"
			},
			"mesh":3,
			"name":"Cylinder.002",
			"rotation":[
				0.7071068286895752,
				0,
				0,
				0.7071068286895752
			],
			"translation":[
				0,
				-0.040000006556510925,
				0.011400366201996803
			]
		},
		{
			"extras":{
				"center_x":0.0,
				"center_z":0.0,
				"center_y":-3.725290298461914e-09,
				"collision":"bodyonly-c"
			},
			"mesh":4,
			"name":"Cylinder.003",
			"rotation":[
				0.7071068286895752,
				0,
				0,
				0.7071068286895752
			],
			"translation":[
				0,
				-0.12000000476837158,
				0.011400366201996803
			]
		},
		{
			"extras":{
				"center_x":0.04543263837695122,
				"center_z":0.0,
				"center_y":1.1175870895385742e-08,
				"collision":"bodyonly-c"
			},
			"mesh":5,
			"name":"Cylinder.004",
			"rotation":[
				0.7071068286895752,
				0,
				0,
				0.7071068286895752
			],
			"translation":[
				0,
				0.11999999731779099,
				0.011400366201996803
			]
		},
		{
			"extras":{
				"center_x":0.04543263837695122,
				"center_z":0.0,
				"center_y":5.587935447692871e-09,
				"collision":"bodyonly-c"
			},
			"mesh":6,
			"name":"Cylinder.005",
			"rotation":[
				0.7071068286895752,
				0,
				0,
				0.7071068286895752
			],
			"translation":[
				0,
				0.03999999910593033,
				0.011400366201996803
			]
		},
		{
			"extras":{
				"center_x":0.04543263837695122,
				"center_z":0.0,
				"center_y":6.51925802230835e-09,
				"collision":"bodyonly-c"
			},
			"mesh":7,
			"name":"Cylinder.006",
			"rotation":[
				0.7071068286895752,
				0,
				0,
				0.7071068286895752
			],
			"translation":[
				0,
				-0.040000006556510925,
				0.011400366201996803
			]
		}
	],
	"animations":[
		{
			"channels":[
				{
					"sampler":0,
					"target":{
						"node":1,
						"path":"translation"
					}
				}
			],
			"name":"button1",
			"samplers":[
				{
					"input":26,
					"interpolation":"LINEAR",
					"output":27
				}
			]
		},
		{
			"channels":[
				{
					"sampler":0,
					"target":{
						"node":2,
						"path":"translation"
					}
				}
			],
			"name":"button3",
			"samplers":[
				{
					"input":26,
					"interpolation":"LINEAR",
					"output":28
				}
			]
		},
		{
			"channels":[
				{
					"sampler":0,
					"target":{
						"node":3,
						"path":"translation"
					}
				}
			],
			"name":"button4",
			"samplers":[
				{
					"input":26,
					"interpolation":"LINEAR",
					"output":29
				}
			]
		},
		{
			"channels":[
				{
					"sampler":0,
					"target":{
						"node":4,
						"path":"translation"
					}
				}
			],
			"name":"button5",
			"samplers":[
				{
					"input":26,
					"interpolation":"LINEAR",
					"output":30
				}
			]
		},
		{
			"channels":[
				{
					"sampler":0,
					"target":{
						"node":5,
						"path":"translation"
					}
				}
			],
			"name":"button2",
			"samplers":[
				{
					"input":26,
					"interpolation":"LINEAR",
					"output":31
				}
			]
		},
		{
			"channels":[
				{
					"sampler":0,
					"target":{
						"node":6,
						"path":"translation"
					}
				}
			],
			"name":"button6",
			"samplers":[
				{
					"input":26,
					"interpolation":"LINEAR",
					"output":32
				}
			]
		},
		{
			"channels":[
				{
					"sampler":0,
					"target":{
						"node":7,
						"path":"translation"
					}
				}
			],
			"name":"button7",
			"samplers":[
				{
					"input":26,
					"interpolation":"LINEAR",
					"output":33
				}
			]
		}
	],
	"materials":[
		{
			"doubleSided":true,
			"name":"Material",
			"pbrMetallicRoughness":{
				"baseColorFactor":[
					0,
					0.006620890460908413,
					0.8000074625015259,
					1
				],
				"metallicFactor":0,
				"roughnessFactor":0.5
			}
		}
	],
	"meshes":[
		{
			"name":"Cube.001",
			"primitives":[
				{
					"attributes":{
						"POSITION":0,
						"NORMAL":1
					},
					"indices":2,
					"material":0
				}
			]
		},
		{
			"name":"Cylinder",
			"primitives":[
				{
					"attributes":{
						"POSITION":3,
						"NORMAL":4,
						"TEXCOORD_0":5
					},
					"indices":6
				}
			]
		},
		{
			"name":"Cylinder.001",
			"primitives":[
				{
					"attributes":{
						"POSITION":7,
						"NORMAL":8,
						"TEXCOORD_0":9
					},
					"indices":6
				}
			]
		},
		{
			"name":"Cylinder.002",
			"primitives":[
				{
					"attributes":{
						"POSITION":10,
						"NORMAL":11,
						"TEXCOORD_0":12
					},
					"indices":6
				}
			]
		},
		{
			"name":"Cylinder.003",
			"primitives":[
				{
					"attributes":{
						"POSITION":13,
						"NORMAL":14,
						"TEXCOORD_0":15
					},
					"indices":6
				}
			]
		},
		{
			"name":"Cylinder.004",
			"primitives":[
				{
					"attributes":{
						"POSITION":16,
						"NORMAL":17,
						"TEXCOORD_0":18
					},
					"indices":19
				}
			]
		},
		{
			"name":"Cylinder.005",
			"primitives":[
				{
					"attributes":{
						"POSITION":20,
						"NORMAL":21,
						"TEXCOORD_0":22
					},
					"indices":19
				}
			]
		},
		{
			"name":"Cylinder.006",
			"primitives":[
				{
					"attributes":{
						"POSITION":23,
						"NORMAL":24,
						"TEXCOORD_0":25
					},
					"indices":19
				}
			]
		}
	],
	"accessors":[
		{
			"bufferView":0,
			"componentType":5126,
			"count":104,
			"max":[
				0.20000000298023224,
				0.20000000298023224,
				0.20000000298023224
			],
			"min":[
				-0.20000000298023224,
				-0.20000000298023224,
				-0.20000000298023224
			],
			"type":"VEC3"
		},
		{
			"bufferView":1,
			"componentType":5126,
			"count":104,
			"type":"VEC3"
		},
		{
			"bufferView":2,
			"componentType":5123,
			"count":348,
			"type":"SCALAR"
		},
		{
			"bufferView":3,
			"componentType":5126,
			"count":192,
			"max":[
				-0.035432636737823486,
				0.007499999832361937,
				0.00999999325722456
			],
			"min":[
				-0.05543264001607895,
				-0.007499999832361937,
				-0.010000006295740604
			],
			"type":"VEC3"
		},
		{
			"bufferView":4,
			"componentType":5126,
			"count":192,
			"type":"VEC3"
		},
		{
			"bufferView":5,
			"componentType":5126,
			"count":192,
			"type":"VEC2"
		},
		{
			"bufferView":6,
			"componentType":5123,
			"count":372,
			"type":"SCALAR"
		},
		{
			"bufferView":7,
			"componentType":5126,
			"count":192,
			"max":[
				-0.035432636737823486,
				0.007499999832361937,
				0.00999999325722456
			],
			"min":[
				-0.05543264001607895,
				-0.007499999832361937,
				-0.010000006295740604
			],
			"type":"VEC3"
		},
		{
			"bufferView":8,
			"componentType":5126,
			"count":192,
			"type":"VEC3"
		},
		{
			"bufferView":9,
			"componentType":5126,
			"count":192,
			"type":"VEC2"
		},
		{
			"bufferView":10,
			"componentType":5126,
			"count":192,
			"max":[
				-0.035432636737823486,
				0.007499999832361937,
				0.00999999325722456
			],
			"min":[
				-0.05543264001607895,
				-0.007499999832361937,
				-0.010000006295740604
			],
			"type":"VEC3"
		},
		{
			"bufferView":11,
			"componentType":5126,
			"count":192,
			"type":"VEC3"
		},
		{
			"bufferView":12,
			"componentType":5126,
			"count":192,
			"type":"VEC2"
		},
		{
			"bufferView":13,
			"componentType":5126,
			"count":192,
			"max":[
				0.009999999776482582,
				0.007499999832361937,
				0.009999999776482582
			],
			"min":[
				-0.009999999776482582,
				-0.007499999832361937,
				-0.009999999776482582
			],
			"type":"VEC3"
		},
		{
			"bufferView":14,
			"componentType":5126,
			"count":192,
			"type":"VEC3"
		},
		{
			"bufferView":15,
			"componentType":5126,
			"count":192,
			"type":"VEC2"
		},
		{
			"bufferView":16,
			"componentType":5126,
			"count":192,
			"max":[
				0.05543264001607895,
				0.007499999832361937,
				0.00999999325722456
			],
			"min":[
				0.035432636737823486,
				-0.007499999832361937,
				-0.010000006295740604
			],
			"type":"VEC3"
		},
		{
			"bufferView":17,
			"componentType":5126,
			"count":192,
			"type":"VEC3"
		},
		{
			"bufferView":18,
			"componentType":5126,
			"count":192,
			"type":"VEC2"
		},
		{
			"bufferView":19,
			"componentType":5123,
			"count":372,
			"type":"SCALAR"
		},
		{
			"bufferView":20,
			"componentType":5126,
			"count":192,
			"max":[
				0.05543264001607895,
				0.007499999832361937,
				0.00999999325722456
			],
			"min":[
				0.035432636737823486,
				-0.007499999832361937,
				-0.010000006295740604
			],
			"type":"VEC3"
		},
		{
			"bufferView":21,
			"componentType":5126,
			"count":192,
			"type":"VEC3"
		},
		{
			"bufferView":22,
			"componentType":5126,
			"count":192,
			"type":"VEC2"
		},
		{
			"bufferView":23,
			"componentType":5126,
			"count":192,
			"max":[
				0.05543264001607895,
				0.007499999832361937,
				0.00999999325722456
			],
			"min":[
				0.035432636737823486,
				-0.007499999832361937,
				-0.010000006295740604
			],
			"type":"VEC3"
		},
		{
			"bufferView":24,
			"componentType":5126,
			"count":192,
			"type":"VEC3"
		},
		{
			"bufferView":25,
			"componentType":5126,
			"count":192,
			"type":"VEC2"
		},
		{
			"bufferView":26,
			"componentType":5126,
			"count":25,
			"max":[
				1
			],
			"min":[
				0
			],
			"type":"SCALAR"
		},
		{
			"bufferView":27,
			"componentType":5126,
			"count":25,
			"type":"VEC3"
		},
		{
			"bufferView":28,
			"componentType":5126,
			"count":25,
			"type":"VEC3"
		},
		{
			"bufferView":29,
			"componentType":5126,
			"count":25,
			"type":"VEC3"
		},
		{
			"bufferView":30,
			"componentType":5126,
			"count":25,
			"type":"VEC3"
		},
		{
			"bufferView":31,
			"componentType":5126,
			"count":25,
			"type":"VEC3"
		},
		{
			"bufferView":32,
			"componentType":5126,
			"count":25,
			"type":"VEC3"
		},
		{
			"bufferView":33,
			"componentType":5126,
			"count":25,
			"type":"VEC3"
		}
	],
	"bufferViews":[
		{
			"buffer":0,
			"byteLength":1248,
			"byteOffset":0,
			"target":34962
		},
		{
			"buffer":0,
			"byteLength":1248,
			"byteOffset":1248,
			"target":34962
		},
		{
			"buffer":0,
			"byteLength":696,
			"byteOffset":2496,
			"target":34963
		},
		{
			"buffer":0,
			"byteLength":2304,
			"byteOffset":3192,
			"target":34962
		},
		{
			"buffer":0,
			"byteLength":2304,
			"byteOffset":5496,
			"target":34962
		},
		{
			"buffer":0,
			"byteLength":1536,
			"byteOffset":7800,
			"target":34962
		},
		{
			"buffer":0,
			"byteLength":744,
			"byteOffset":9336,
			"target":34963
		},
		{
			"buffer":0,
			"byteLength":2304,
			"byteOffset":10080,
			"target":34962
		},
		{
			"buffer":0,
			"byteLength":2304,
			"byteOffset":12384,
			"target":34962
		},
		{
			"buffer":0,
			"byteLength":1536,
			"byteOffset":14688,
			"target":34962
		},
		{
			"buffer":0,
			"byteLength":2304,
			"byteOffset":16224,
			"target":34962
		},
		{
			"buffer":0,
			"byteLength":2304,
			"byteOffset":18528,
			"target":34962
		},
		{
			"buffer":0,
			"byteLength":1536,
			"byteOffset":20832,
			"target":34962
		},
		{
			"buffer":0,
			"byteLength":2304,
			"byteOffset":22368,
			"target":34962
		},
		{
			"buffer":0,
			"byteLength":2304,
			"byteOffset":24672,
			"target":34962
		},
		{
			"buffer":0,
			"byteLength":1536,
			"byteOffset":26976,
			"target":34962
		},
		{
			"buffer":0,
			"byteLength":2304,
			"byteOffset":28512,
			"target":34962
		},
		{
			"buffer":0,
			"byteLength":2304,
			"byteOffset":30816,
			"target":34962
		},
		{
			"buffer":0,
			"byteLength":1536,
			"byteOffset":33120,
			"target":34962
		},
		{
			"buffer":0,
			"byteLength":744,
			"byteOffset":34656,
			"target":34963
		},
		{
			"buffer":0,
			"byteLength":2304,
			"byteOffset":35400,
			"target":34962
		},
		{
			"buffer":0,
			"byteLength":2304,
			"byteOffset":37704,
			"target":34962
		},
		{
			"buffer":0,
			"byteLength":1536,
			"byteOffset":40008,
			"target":34962
		},
		{
			"buffer":0,
			"byteLength":2304,
			"byteOffset":41544,
			"target":34962
		},
		{
			"buffer":0,
			"byteLength":2304,
			"byteOffset":43848,
			"target":34962
		},
		{
			"buffer":0,
			"byteLength":1536,
			"byteOffset":46152,
			"target":34962
		},
		{
			"buffer":0,
			"byteLength":100,
			"byteOffset":47688
		},
		{
			"buffer":0,
			"byteLength":300,
			"byteOffset":47788
		},
		{
			"buffer":0,
			"byteLength":300,
			"byteOffset":48088
		},
		{
			"buffer":0,
			"byteLength":300,
			"byteOffset":48388
		},
		{
			"buffer":0,
			"byteLength":300,
			"byteOffset":48688
		},
		{
			"buffer":0,
			"byteLength":300,
			"byteOffset":48988
		},
		{
			"buffer":0,
			"byteLength":300,
			"byteOffset":49288
		},
		{
			"buffer":0,
			"byteLength":300,
			"byteOffset":49588
		}
	],
	"buffers":[
		{
			"byteLength":49888,
			"uri":"buttons_prop.bin"
		}
	]
}
