{
	"asset":{
		"generator":"Khronos glTF Blender I/O v5.0.21",
		"version":"2.0"
	},
	"scene":0,
	"scenes":[
		{
			"extras":{
				"assets used":{
					"c57f0e93-c330-416b-a4d0-91949b68290b":{
						"access":"free",
						"accessLabel":"Free",
						"addonVersion":"3.7.0",
						"assetBaseId":"c57f0e93-c330-416b-a4d0-91949b68290b",
						"assetType":"material",
						"author":{
							"aboutMe":"self-taught 3D artist who creates anime characters, stylized characters, robots, cartoon fantasy worlds, and much more. I bring creativity and detail to every project.",
							"aboutMeUrl":"https://www.artstation.com/zerovert",
							"avatar128":"/avatar-redirect/df7d97e4-1b8f-4211-830d-edb47b2ff7d5/128/",
							"firstName":"diaverx",
							"fullName":"diaverx ",
							"gravatarHash":"85789a0f9bb1779d2fe6a45507e89182",
							"id":"205542",
							"lastName":""
						},
						"available_resolutions":[],
						"basePrice":"",
						"canDownload":true,
						"canDownloadError":true,
						"category":"rock",
						"created":"2023-06-28T02:04:38.141167+02:00",
						"description":"Procedural Rock Cave Wall material",
						"dictParameters":{
							"addons":true,
							"animated":false,
							"engine":"cycles",
							"joinBlenderkitDiscounts":true,
							"materialStyle":"realistic",
							"megapixels":0,
							"nodeCount":11,
							"platforms":[
								"windows-x64",
								"macos-arm64",
								"linux-x64",
								"macos-x64",
								"windows-arm64"
							],
							"procedural":true,
							"purePbr":false,
							"sexualizedContent":false,
							"shaders":[
								"principled"
							],
							"textureCount":0,
							"textureSizeMeters":1,
							"uv":false
						},
						"displayName":"Procedural Cave Rock",
						"downloaded":0,
						"files":[
							{
								"created":"2023-06-28T02:04:42.759839+02:00",
								"downloadUrl":"https://www.blenderkit.com/api/v1/downloads/206387/",
								"fileThumbnail":"",
								"fileThumbnailLarge":"",
								"fileType":"blend",
								"fileUploadSize":66306,
								"filename":"assets/d2ba0d8b528e49f489a2c76dfa9f950c/files/blend_9bd7020d-7d1c-4b92-86e0-6e0b3f44ef99.blend",
								"modified":"2023-06-28T02:04:43.919993+02:00",
								"resolution":0,
								"thumbnailMiddleUrl":"",
								"thumbnailSmallUrl":"",
								"url":"https://assets.blenderkit.com/assets/d2ba0d8b528e49f489a2c76dfa9f950c/files/blend_9bd7020d-7d1c-4b92-86e0-6e0b3f44ef99.blend?verify=1771172639-hw6YyDzRbg0pbrQqXNtfOrCPZwRXnUbWyOlUdfu6HEw%3D",
								"file_name":"C:\\Users\\axxel\\blenderkit_data\\materials\\procedural-cave-_d2ba0d8b-528e-49f4-89a2-c76dfa9f950c\\procedural-cave-rock_9bd7020d-7d1c-4b92-86e0-6e0b3f44ef99.blend"
							},
							{
								"created":"2023-06-28T02:04:41.689875+02:00",
								"downloadUrl":"https://www.blenderkit.com/api/v1/downloads/206386/",
								"fileThumbnail":"https://public.blenderkit.com/thumbnails/assets/d2ba0d8b528e49f489a2c76dfa9f950c/files/thumbnail_33a791ea-172f-4f47-be5f-5cb6e88a0a5c.png.96x96_q85_crop-%2C.png",
								"fileThumbnailLarge":"https://public.blenderkit.com/thumbnails/assets/d2ba0d8b528e49f489a2c76dfa9f950c/files/thumbnail_33a791ea-172f-4f47-be5f-5cb6e88a0a5c.png.1024x1024_q85_crop-%2C.png",
								"fileType":"thumbnail",
								"fileUploadSize":1473661,
								"filename":"assets/d2ba0d8b528e49f489a2c76dfa9f950c/files/thumbnail_33a791ea-172f-4f47-be5f-5cb6e88a0a5c.png",
								"modified":"2025-12-22T20:02:33.817008+01:00",
								"resolution":0,
								"thumbnailMiddleUrl":"https://public.blenderkit.com/thumbnails/assets/d2ba0d8b528e49f489a2c76dfa9f950c/files/thumbnail_33a791ea-172f-4f47-be5f-5cb6e88a0a5c.png.512x512_q85_crop-%2C.png",
								"thumbnailSmallUrl":"https://public.blenderkit.com/thumbnails/assets/d2ba0d8b528e49f489a2c76dfa9f950c/files/thumbnail_33a791ea-172f-4f47-be5f-5cb6e88a0a5c.png.256x256_q85_crop-%2C.png",
								"url":""
							}
						],
						"id":"d2ba0d8b-528e-49f4-89a2-c76dfa9f950c",
						"isForSale":false,
						"isFree":true,
						"isPrivate":false,
						"lastAnimatedThumbnailUpload":null,
						"lastBlendUpload":"2023-06-28T00:04:42.759839+00:00",
						"lastGltfGodotUpload":null,
						"lastGltfUpload":null,
						"lastPhotoThumbnailUpload":null,
						"lastResolutionUpload":null,
						"lastThumbnailUpload":"2023-06-28T00:04:41.689875+00:00",
						"lastUserInteraction":"2023-06-28T02:04:43.428120+02:00",
						"lastVideoUpload":null,
						"lastZipFileUpload":"",
						"license":"royalty_free",
						"max_resolution":0,
						"name":"Procedural Cave Rock",
						"pk":58094,
						"ratingsAverage":{
							"bookmarks":0.9873015873015873,
							"quality":10,
							"virtualPrice":null,
							"workingHours":3
						},
						"ratingsCount":{
							"bookmarks":315,
							"quality":2,
							"virtualPrice":0,
							"workingHours":2
						},
						"ratingsMedian":{
							"bookmarks":1,
							"quality":10,
							"virtualPrice":null,
							"workingHours":3
						},
						"ratingsSum":{
							"bookmarks":311,
							"quality":20,
							"score":300,
							"virtualPrice":null,
							"workingHours":6
						},
						"score":300,
						"showMarketingLabels":true,
						"sourceAppName":"blender",
						"sourceAppVersion":"3.5.1",
						"tags":[
							"Procedural",
							"Rock",
							"Cave",
							"Wall",
							"chunks",
							"stone",
							"ground"
						],
						"texture_size_meters":1,
						"thumbnail":"thumbnail_33a791ea-172f-4f47-be5f-5cb6e88a0a5c.png.512x512_q85_crop-%2C.png.webp",
						"thumbnailLargeUrl":"https://public.blenderkit.com/thumbnails/assets/d2ba0d8b528e49f489a2c76dfa9f950c/files/thumbnail_33a791ea-172f-4f47-be5f-5cb6e88a0a5c.png.1024x1024_q85_crop-%2C.png",
						"thumbnailLargeUrlNonsquared":"https://public.blenderkit.com/thumbnails/assets/d2ba0d8b528e49f489a2c76dfa9f950c/files/thumbnail_33a791ea-172f-4f47-be5f-5cb6e88a0a5c.png.1024x1024_q85.png",
						"thumbnailLargeUrlNonsquaredWebp":"https://public.blenderkit.com/thumbnails/assets/d2ba0d8b528e49f489a2c76dfa9f950c/files/thumbnail_33a791ea-172f-4f47-be5f-5cb6e88a0a5c.png.1024x1024_q85.png.webp?webp_generated=1766484988",
						"thumbnailLargeUrlWebp":"https://public.blenderkit.com/thumbnails/assets/d2ba0d8b528e49f489a2c76dfa9f950c/files/thumbnail_33a791ea-172f-4f47-be5f-5cb6e88a0a5c.png.1024x1024_q85_crop-%2C.png.webp?webp_generated=1766484988",
						"thumbnailMiddleUrl":"https://public.blenderkit.com/thumbnails/assets/d2ba0d8b528e49f489a2c76dfa9f950c/files/thumbnail_33a791ea-172f-4f47-be5f-5cb6e88a0a5c.png.512x512_q85_crop-%2C.png",
						"thumbnailMiddleUrlNonsquared":"https://public.blenderkit.com/thumbnails/assets/d2ba0d8b528e49f489a2c76dfa9f950c/files/thumbnail_33a791ea-172f-4f47-be5f-5cb6e88a0a5c.png.512x512_q85.png",
						"thumbnailMiddleUrlNonsquaredWebp":"https://public.blenderkit.com/thumbnails/assets/d2ba0d8b528e49f489a2c76dfa9f950c/files/thumbnail_33a791ea-172f-4f47-be5f-5cb6e88a0a5c.png.512x512_q85.png.webp?webp_generated=1766484988",
						"thumbnailMiddleUrlWebp":"https://public.blenderkit.com/thumbnails/assets/d2ba0d8b528e49f489a2c76dfa9f950c/files/thumbnail_33a791ea-172f-4f47-be5f-5cb6e88a0a5c.png.512x512_q85_crop-%2C.png.webp?webp_generated=1766484988",
						"thumbnailSmallUrl":"https://public.blenderkit.com/thumbnails/assets/d2ba0d8b528e49f489a2c76dfa9f950c/files/thumbnail_33a791ea-172f-4f47-be5f-5cb6e88a0a5c.png.256x256_q85_crop-%2C.png",
						"thumbnailSmallUrlNonsquared":"https://public.blenderkit.com/thumbnails/assets/d2ba0d8b528e49f489a2c76dfa9f950c/files/thumbnail_33a791ea-172f-4f47-be5f-5cb6e88a0a5c.png.256x256_q85.png",
						"thumbnailSmallUrlNonsquaredWebp":"https://public.blenderkit.com/thumbnails/assets/d2ba0d8b528e49f489a2c76dfa9f950c/files/thumbnail_33a791ea-172f-4f47-be5f-5cb6e88a0a5c.png.256x256_q85.png.webp?webp_generated=1766484988",
						"thumbnailSmallUrlWebp":"https://public.blenderkit.com/thumbnails/assets/d2ba0d8b528e49f489a2c76dfa9f950c/files/thumbnail_33a791ea-172f-4f47-be5f-5cb6e88a0a5c.png.256x256_q85_crop-%2C.png.webp?webp_generated=1766484988",
						"thumbnailXlargeUrl":"https://public.blenderkit.com/thumbnails/assets/d2ba0d8b528e49f489a2c76dfa9f950c/files/thumbnail_33a791ea-172f-4f47-be5f-5cb6e88a0a5c.png.2048x2048_q85_crop-%2C.png",
						"thumbnailXlargeUrlNonsquared":"https://public.blenderkit.com/thumbnails/assets/d2ba0d8b528e49f489a2c76dfa9f950c/files/thumbnail_33a791ea-172f-4f47-be5f-5cb6e88a0a5c.png.2048x2048_q85.png",
						"thumbnailXlargeUrlNonsquaredWebp":"https://public.blenderkit.com/thumbnails/assets/d2ba0d8b528e49f489a2c76dfa9f950c/files/thumbnail_33a791ea-172f-4f47-be5f-5cb6e88a0a5c.png.2048x2048_q85.png.webp?webp_generated=1766484988",
						"thumbnailXlargeUrlWebp":"https://public.blenderkit.com/thumbnails/assets/d2ba0d8b528e49f489a2c76dfa9f950c/files/thumbnail_33a791ea-172f-4f47-be5f-5cb6e88a0a5c.png.2048x2048_q85_crop-%2C.png.webp?webp_generated=1766484988",
						"thumbnail_small":"thumbnail_33a791ea-172f-4f47-be5f-5cb6e88a0a5c.png.256x256_q85_crop-%2C.png.webp",
						"tooltip_data":{
							"aname":"Procedural Cave Rock",
							"author_text":"by diaverx ",
							"price_background":[
								0,
								0,
								0,
								0
							],
							"price_color":[
								1.0,
								1.0,
								1.0,
								0.9
							],
							"price_text":"",
							"quality":"10"
						},
						"url":"https://www.blenderkit.com/api/v1/assets/d2ba0d8b-528e-49f4-89a2-c76dfa9f950c/",
						"verificationStatus":"validated",
						"versionNumber":1,
						"videoLink":"",
						"webpGeneratedTimestamp":1766484988,
						"resolution":"resolution_2K"
					},
					"84dc488c-276c-4a6e-8e73-6e7c34c854a0":{
						"access":"free",
						"accessLabel":"Free",
						"addonVersion":"3.13.0",
						"assetBaseId":"84dc488c-276c-4a6e-8e73-6e7c34c854a0",
						"assetType":"material",
						"author":{
							"aboutMe":"I am a 3d artist from Uzbekistan. Please rate my assets or write a comment with your feedback to let me know if my assets are being useful to you. \r\n\r\nIf you want to contact me \r\nWrite me on telegram: https://t.me/Ibrohimtoxirov",
							"aboutMeUrl":"https://t.me/Ibrohim_3d",
							"avatar128":"/avatar-redirect/d31f3523-7ebf-486e-b1ed-8f55d2615799/128/",
							"firstName":"Ibrohim",
							"fullName":"Ibrohim Toxirov",
							"gravatarHash":"5b2cbb7d974eff9bcbb67a214d29917d",
							"id":"803930",
							"lastName":"Toxirov"
						},
						"available_resolutions":[],
						"basePrice":"",
						"canDownload":true,
						"canDownloadError":true,
						"category":"rock",
						"created":"2025-01-08T12:07:30.110857+01:00",
						"description":"Rock cave material. Please give it a high rating.",
						"dictParameters":{
							"addons":true,
							"animated":false,
							"engine":"cycles",
							"joinBlenderkitDiscounts":true,
							"materialStyle":"realistic",
							"megapixels":0,
							"nodeCount":12,
							"platforms":[
								"windows-x64",
								"macos-arm64",
								"linux-x64",
								"macos-x64",
								"windows-arm64"
							],
							"procedural":true,
							"purePbr":false,
							"sexualizedContent":false,
							"shaders":[
								"[principled]"
							],
							"textureCount":0,
							"textureSizeMeters":1,
							"uv":false
						},
						"displayName":"Rock cave material",
						"downloaded":0,
						"files":[
							{
								"created":"2025-01-08T12:07:40.579116+01:00",
								"downloadUrl":"https://www.blenderkit.com/api/v1/downloads/542167/",
								"fileThumbnail":"",
								"fileThumbnailLarge":"",
								"fileType":"blend",
								"fileUploadSize":70613,
								"filename":"assets/2eab293194ae48a0baf036955e5d0364/files/blend_4e6610d7-bc09-42df-9a08-4e04b3f38f06.blend",
								"modified":"2025-01-14T12:39:03.211456+01:00",
								"resolution":0,
								"thumbnailMiddleUrl":"",
								"thumbnailSmallUrl":"",
								"url":"https://assets.blenderkit.com/assets/2eab293194ae48a0baf036955e5d0364/files/blend_4e6610d7-bc09-42df-9a08-4e04b3f38f06.blend?verify=1771172992-kMPc0LhJx5AxIOiJtMwJB1pHk5mKQjtb9pPMn4ebHLs%3D",
								"file_name":"C:\\Users\\axxel\\blenderkit_data\\materials\\rock-cave-materi_2eab2931-94ae-48a0-baf0-36955e5d0364\\rock-cave-material_4e6610d7-bc09-42df-9a08-4e04b3f38f06.blend"
							},
							{
								"created":"2025-01-08T12:07:38.721856+01:00",
								"downloadUrl":"https://www.blenderkit.com/api/v1/downloads/542166/",
								"fileThumbnail":"https://public.blenderkit.com/thumbnails/assets/2eab293194ae48a0baf036955e5d0364/files/thumbnail_db780ccf-501f-4eb2-8bc9-a5c05a6e81b5.png.96x96_q85_crop-%2C.png",
								"fileThumbnailLarge":"https://public.blenderkit.com/thumbnails/assets/2eab293194ae48a0baf036955e5d0364/files/thumbnail_db780ccf-501f-4eb2-8bc9-a5c05a6e81b5.png.1024x1024_q85_crop-%2C.png",
								"fileType":"thumbnail",
								"fileUploadSize":5449599,
								"filename":"assets/2eab293194ae48a0baf036955e5d0364/files/thumbnail_db780ccf-501f-4eb2-8bc9-a5c05a6e81b5.png",
								"modified":"2025-12-23T00:58:03.083904+01:00",
								"resolution":0,
								"thumbnailMiddleUrl":"https://public.blenderkit.com/thumbnails/assets/2eab293194ae48a0baf036955e5d0364/files/thumbnail_db780ccf-501f-4eb2-8bc9-a5c05a6e81b5.png.512x512_q85_crop-%2C.png",
								"thumbnailSmallUrl":"https://public.blenderkit.com/thumbnails/assets/2eab293194ae48a0baf036955e5d0364/files/thumbnail_db780ccf-501f-4eb2-8bc9-a5c05a6e81b5.png.256x256_q85_crop-%2C.png",
								"url":""
							}
						],
						"id":"2eab2931-94ae-48a0-baf0-36955e5d0364",
						"isForSale":false,
						"isFree":true,
						"isPrivate":false,
						"lastAnimatedThumbnailUpload":null,
						"lastBlendUpload":"2025-01-08T11:07:40.579116+00:00",
						"lastGltfGodotUpload":null,
						"lastGltfUpload":null,
						"lastPhotoThumbnailUpload":null,
						"lastResolutionUpload":null,
						"lastThumbnailUpload":"2025-01-08T11:07:38.721856+00:00",
						"lastUserInteraction":"2025-01-08T12:07:41.303304+01:00",
						"lastVideoUpload":null,
						"lastZipFileUpload":"",
						"license":"royalty_free",
						"max_resolution":0,
						"name":"Rock cave material",
						"pk":124056,
						"ratingsAverage":{
							"bookmarks":0.9655172413793104,
							"quality":8,
							"virtualPrice":null,
							"workingHours":2
						},
						"ratingsCount":{
							"bookmarks":58,
							"quality":1,
							"virtualPrice":0,
							"workingHours":1
						},
						"ratingsMedian":{
							"bookmarks":1,
							"quality":8,
							"virtualPrice":null,
							"workingHours":2
						},
						"ratingsSum":{
							"bookmarks":56,
							"quality":8,
							"score":160,
							"virtualPrice":null,
							"workingHours":2
						},
						"score":160,
						"showMarketingLabels":true,
						"sourceAppName":"blender",
						"sourceAppVersion":"4.1.0",
						"tags":[
							"render",
							"real",
							"interior",
							"exterior",
							"procedural"
						],
						"texture_size_meters":1,
						"thumbnail":"thumbnail_db780ccf-501f-4eb2-8bc9-a5c05a6e81b5.png.512x512_q85_crop-%2C.png.webp",
						"thumbnailLargeUrl":"https://public.blenderkit.com/thumbnails/assets/2eab293194ae48a0baf036955e5d0364/files/thumbnail_db780ccf-501f-4eb2-8bc9-a5c05a6e81b5.png.1024x1024_q85_crop-%2C.png",
						"thumbnailLargeUrlNonsquared":"https://public.blenderkit.com/thumbnails/assets/2eab293194ae48a0baf036955e5d0364/files/thumbnail_db780ccf-501f-4eb2-8bc9-a5c05a6e81b5.png.1024x1024_q85.png",
						"thumbnailLargeUrlNonsquaredWebp":"https://public.blenderkit.com/thumbnails/assets/2eab293194ae48a0baf036955e5d0364/files/thumbnail_db780ccf-501f-4eb2-8bc9-a5c05a6e81b5.png.1024x1024_q85.png.webp?webp_generated=1766592076",
						"thumbnailLargeUrlWebp":"https://public.blenderkit.com/thumbnails/assets/2eab293194ae48a0baf036955e5d0364/files/thumbnail_db780ccf-501f-4eb2-8bc9-a5c05a6e81b5.png.1024x1024_q85_crop-%2C.png.webp?webp_generated=1766592076",
						"thumbnailMiddleUrl":"https://public.blenderkit.com/thumbnails/assets/2eab293194ae48a0baf036955e5d0364/files/thumbnail_db780ccf-501f-4eb2-8bc9-a5c05a6e81b5.png.512x512_q85_crop-%2C.png",
						"thumbnailMiddleUrlNonsquared":"https://public.blenderkit.com/thumbnails/assets/2eab293194ae48a0baf036955e5d0364/files/thumbnail_db780ccf-501f-4eb2-8bc9-a5c05a6e81b5.png.512x512_q85.png",
						"thumbnailMiddleUrlNonsquaredWebp":"https://public.blenderkit.com/thumbnails/assets/2eab293194ae48a0baf036955e5d0364/files/thumbnail_db780ccf-501f-4eb2-8bc9-a5c05a6e81b5.png.512x512_q85.png.webp?webp_generated=1766592076",
						"thumbnailMiddleUrlWebp":"https://public.blenderkit.com/thumbnails/assets/2eab293194ae48a0baf036955e5d0364/files/thumbnail_db780ccf-501f-4eb2-8bc9-a5c05a6e81b5.png.512x512_q85_crop-%2C.png.webp?webp_generated=1766592076",
						"thumbnailSmallUrl":"https://public.blenderkit.com/thumbnails/assets/2eab293194ae48a0baf036955e5d0364/files/thumbnail_db780ccf-501f-4eb2-8bc9-a5c05a6e81b5.png.256x256_q85_crop-%2C.png",
						"thumbnailSmallUrlNonsquared":"https://public.blenderkit.com/thumbnails/assets/2eab293194ae48a0baf036955e5d0364/files/thumbnail_db780ccf-501f-4eb2-8bc9-a5c05a6e81b5.png.256x256_q85.png",
						"thumbnailSmallUrlNonsquaredWebp":"https://public.blenderkit.com/thumbnails/assets/2eab293194ae48a0baf036955e5d0364/files/thumbnail_db780ccf-501f-4eb2-8bc9-a5c05a6e81b5.png.256x256_q85.png.webp?webp_generated=1766592076",
						"thumbnailSmallUrlWebp":"https://public.blenderkit.com/thumbnails/assets/2eab293194ae48a0baf036955e5d0364/files/thumbnail_db780ccf-501f-4eb2-8bc9-a5c05a6e81b5.png.256x256_q85_crop-%2C.png.webp?webp_generated=1766592076",
						"thumbnailXlargeUrl":"https://public.blenderkit.com/thumbnails/assets/2eab293194ae48a0baf036955e5d0364/files/thumbnail_db780ccf-501f-4eb2-8bc9-a5c05a6e81b5.png.2048x2048_q85_crop-%2C.png",
						"thumbnailXlargeUrlNonsquared":"https://public.blenderkit.com/thumbnails/assets/2eab293194ae48a0baf036955e5d0364/files/thumbnail_db780ccf-501f-4eb2-8bc9-a5c05a6e81b5.png.2048x2048_q85.png",
						"thumbnailXlargeUrlNonsquaredWebp":"https://public.blenderkit.com/thumbnails/assets/2eab293194ae48a0baf036955e5d0364/files/thumbnail_db780ccf-501f-4eb2-8bc9-a5c05a6e81b5.png.2048x2048_q85.png.webp?webp_generated=1766592076",
						"thumbnailXlargeUrlWebp":"https://public.blenderkit.com/thumbnails/assets/2eab293194ae48a0baf036955e5d0364/files/thumbnail_db780ccf-501f-4eb2-8bc9-a5c05a6e81b5.png.2048x2048_q85_crop-%2C.png.webp?webp_generated=1766592076",
						"thumbnail_small":"thumbnail_db780ccf-501f-4eb2-8bc9-a5c05a6e81b5.png.256x256_q85_crop-%2C.png.webp",
						"tooltip_data":{
							"aname":"Rock cave material",
							"author_text":"by Ibrohim Toxirov",
							"price_background":[
								0,
								0,
								0,
								0
							],
							"price_color":[
								1.0,
								1.0,
								1.0,
								0.9
							],
							"price_text":"",
							"quality":"8"
						},
						"url":"https://www.blenderkit.com/api/v1/assets/2eab2931-94ae-48a0-baf0-36955e5d0364/",
						"verificationStatus":"validated",
						"versionNumber":1,
						"videoLink":"",
						"webpGeneratedTimestamp":1766592076,
						"resolution":"resolution_2K"
					}
				},
				"uuid":"46c9cdc6-8292-46a0-bedd-a7e976ee932f",
				"assets reported":{}
			},
			"name":"Scene",
			"nodes":[
				0
			]
		}
	],
	"nodes":[
		{
			"extras":{
				"collision":"trimesh"
			},
			"mesh":0,
			"name":"Plane"
		}
	],
	"materials":[
		{
			"doubleSided":true,
			"name":"Material",
			"pbrMetallicRoughness":{
				"baseColorFactor":[
					0.800000011920929,
					0.800000011920929,
					0.800000011920929,
					1
				],
				"metallicFactor":0,
				"roughnessFactor":0.5
			}
		}
	],
	"meshes":[
		{
			"name":"Plane.003",
			"primitives":[
				{
					"attributes":{
						"POSITION":0,
						"NORMAL":1,
						"TEXCOORD_0":2
					},
					"indices":3,
					"material":0
				}
			]
		}
	],
	"accessors":[
		{
			"bufferView":0,
			"componentType":5126,
			"count":590,
			"max":[
				10.419562339782715,
				12.318866729736328,
				3.180086374282837
			],
			"min":[
				-10.630183219909668,
				-0.9478111267089844,
				-94.50994873046875
			],
			"type":"VEC3"
		},
		{
			"bufferView":1,
			"componentType":5126,
			"count":590,
			"type":"VEC3"
		},
		{
			"bufferView":2,
			"componentType":5126,
			"count":590,
			"type":"VEC2"
		},
		{
			"bufferView":3,
			"componentType":5123,
			"count":936,
			"type":"SCALAR"
		}
	],
	"bufferViews":[
		{
			"buffer":0,
			"byteLength":7080,
			"byteOffset":0,
			"target":34962
		},
		{
			"buffer":0,
			"byteLength":7080,
			"byteOffset":7080,
			"target":34962
		},
		{
			"buffer":0,
			"byteLength":4720,
			"byteOffset":14160,
			"target":34962
		},
		{
			"buffer":0,
			"byteLength":1872,
			"byteOffset":18880,
			"target":34963
		}
	],
	"buffers":[
		{
			"byteLength":20752,
			"uri":"cave_prop.bin"
		}
	]
}
