{
	"asset":{
		"generator":"Khronos glTF Blender I/O v5.0.21",
		"version":"2.0"
	},
	"scene":0,
	"scenes":[
		{
			"name":"Scene",
			"nodes":[
				0,
				1,
				2
			]
		}
	],
	"nodes":[
		{
			"extras":{
				"collision":"simple"
			},
			"mesh":0,
			"name":"Cube"
		},
		{
			"extras":{
				"collision":"bodyonly"
			},
			"mesh":1,
			"name":"Cube.001",
			"translation":[
				1.2335273027420044,
				0,
				0.7306016683578491
			]
		},
		{
			"extras":{
				"collision":"bodyonly"
			},
			"mesh":2,
			"name":"Cube.002",
			"rotation":[
				-0.7071068286895752,
				0,
				0,
				0.7071068286895752
			],
			"translation":[
				1.2335273027420044,
				0.6932061910629272,
				-0.01695966348052025
			]
		}
	],
	"materials":[
		{
			"doubleSided":true,
			"name":"Material",
			"pbrMetallicRoughness":{
				"baseColorFactor":[
					0.7683737874031067,
					0.8000074625015259,
					0.15515892207622528,
					1
				],
				"metallicFactor":0,
				"roughnessFactor":0.5
			}
		}
	],
	"meshes":[
		{
			"name":"Cube",
			"primitives":[
				{
					"attributes":{
						"POSITION":0,
						"NORMAL":1,
						"TEXCOORD_0":2
					},
					"indices":3,
					"material":0
				}
			]
		},
		{
			"name":"Cube.001",
			"primitives":[
				{
					"attributes":{
						"POSITION":4,
						"NORMAL":5,
						"TEXCOORD_0":6
					},
					"indices":7
				}
			]
		},
		{
			"name":"Cube.002",
			"primitives":[
				{
					"attributes":{
						"POSITION":8,
						"NORMAL":9,
						"TEXCOORD_0":10
					},
					"indices":7
				}
			]
		}
	],
	"accessors":[
		{
			"bufferView":0,
			"componentType":5126,
			"count":140,
			"max":[
				1.350000023841858,
				1.100000023841858,
				1.100000023841858
			],
			"min":[
				-1.350000023841858,
				-1.600000023841858,
				-1.100000023841858
			],
			"type":"VEC3"
		},
		{
			"bufferView":1,
			"componentType":5126,
			"count":140,
			"type":"VEC3"
		},
		{
			"bufferView":2,
			"componentType":5126,
			"count":140,
			"type":"VEC2"
		},
		{
			"bufferView":3,
			"componentType":5123,
			"count":378,
			"type":"SCALAR"
		},
		{
			"bufferView":4,
			"componentType":5126,
			"count":24,
			"max":[
				0.015895754098892212,
				0.44530361890792847,
				0.15000000596046448
			],
			"min":[
				-0.015895754098892212,
				-0.44530361890792847,
				-0.15000000596046448
			],
			"type":"VEC3"
		},
		{
			"bufferView":5,
			"componentType":5126,
			"count":24,
			"type":"VEC3"
		},
		{
			"bufferView":6,
			"componentType":5126,
			"count":24,
			"type":"VEC2"
		},
		{
			"bufferView":7,
			"componentType":5123,
			"count":36,
			"type":"SCALAR"
		},
		{
			"bufferView":8,
			"componentType":5126,
			"count":24,
			"max":[
				0.015895754098892212,
				0.44530361890792847,
				0.15000000596046448
			],
			"min":[
				-0.015895754098892212,
				-0.44530361890792847,
				-0.15000000596046448
			],
			"type":"VEC3"
		},
		{
			"bufferView":9,
			"componentType":5126,
			"count":24,
			"type":"VEC3"
		},
		{
			"bufferView":10,
			"componentType":5126,
			"count":24,
			"type":"VEC2"
		}
	],
	"bufferViews":[
		{
			"buffer":0,
			"byteLength":1680,
			"byteOffset":0,
			"target":34962
		},
		{
			"buffer":0,
			"byteLength":1680,
			"byteOffset":1680,
			"target":34962
		},
		{
			"buffer":0,
			"byteLength":1120,
			"byteOffset":3360,
			"target":34962
		},
		{
			"buffer":0,
			"byteLength":756,
			"byteOffset":4480,
			"target":34963
		},
		{
			"buffer":0,
			"byteLength":288,
			"byteOffset":5236,
			"target":34962
		},
		{
			"buffer":0,
			"byteLength":288,
			"byteOffset":5524,
			"target":34962
		},
		{
			"buffer":0,
			"byteLength":192,
			"byteOffset":5812,
			"target":34962
		},
		{
			"buffer":0,
			"byteLength":72,
			"byteOffset":6004,
			"target":34963
		},
		{
			"buffer":0,
			"byteLength":288,
			"byteOffset":6076,
			"target":34962
		},
		{
			"buffer":0,
			"byteLength":288,
			"byteOffset":6364,
			"target":34962
		},
		{
			"buffer":0,
			"byteLength":192,
			"byteOffset":6652,
			"target":34962
		}
	],
	"buffers":[
		{
			"byteLength":6844,
			"uri":"elevator_prop.bin"
		}
	]
}
