{
	"asset":{
		"generator":"Khronos glTF Blender I/O v5.0.21",
		"version":"2.0"
	},
	"scene":0,
	"scenes":[
		{
			"name":"Scene",
			"nodes":[
				0,
				1
			]
		}
	],
	"nodes":[
		{
			"extras":{
				"collision":"simple"
			},
			"mesh":0,
			"name":"Cylinder",
			"rotation":[
				0,
				0.06601055711507797,
				0,
				0.9978189468383789
			]
		},
		{
			"extras":{
				"collision":"cylinder",
				"center_x":0.0,
				"center_z":0.0,
				"center_y":0.0,
				"height":"3.0",
				"radius":"2.0"
			},
			"mesh":1,
			"name":"Cylinder.001",
			"translation":[
				0,
				1.5422368049621582,
				0
			]
		}
	],
	"materials":[
		{
			"doubleSided":true,
			"name":"white",
			"pbrMetallicRoughness":{
				"baseColorFactor":[
					0.800000011920929,
					0.800000011920929,
					0.800000011920929,
					1
				],
				"metallicFactor":0,
				"roughnessFactor":0.5
			}
		},
		{
			"doubleSided":true,
			"name":"green",
			"pbrMetallicRoughness":{
				"baseColorFactor":[
					0.011260489001870155,
					0.8000156879425049,
					0.009252299554646015,
					1
				],
				"metallicFactor":0,
				"roughnessFactor":0.5
			}
		}
	],
	"meshes":[
		{
			"name":"Cylinder",
			"primitives":[
				{
					"attributes":{
						"POSITION":0,
						"NORMAL":1,
						"TEXCOORD_0":2
					},
					"indices":3,
					"material":0
				},
				{
					"attributes":{
						"POSITION":4,
						"NORMAL":5,
						"TEXCOORD_0":6
					},
					"indices":7,
					"material":1
				}
			]
		},
		{
			"name":"Cylinder.001",
			"primitives":[
				{
					"attributes":{
						"POSITION":8,
						"NORMAL":9,
						"TEXCOORD_0":10
					},
					"indices":11,
					"material":0
				}
			]
		}
	],
	"accessors":[
		{
			"bufferView":0,
			"componentType":5126,
			"count":354,
			"max":[
				8,
				2.517155885696411,
				8
			],
			"min":[
				-8,
				-0.05000000074505806,
				-8
			],
			"type":"VEC3"
		},
		{
			"bufferView":1,
			"componentType":5126,
			"count":354,
			"type":"VEC3"
		},
		{
			"bufferView":2,
			"componentType":5126,
			"count":354,
			"type":"VEC2"
		},
		{
			"bufferView":3,
			"componentType":5123,
			"count":690,
			"type":"SCALAR"
		},
		{
			"bufferView":4,
			"componentType":5126,
			"count":28,
			"max":[
				7.718098163604736,
				0.050000011920928955,
				7.718098163604736
			],
			"min":[
				-7.718098163604736,
				0.05000000074505806,
				-7.718098163604736
			],
			"type":"VEC3"
		},
		{
			"bufferView":5,
			"componentType":5126,
			"count":28,
			"type":"VEC3"
		},
		{
			"bufferView":6,
			"componentType":5126,
			"count":28,
			"type":"VEC2"
		},
		{
			"bufferView":7,
			"componentType":5123,
			"count":72,
			"type":"SCALAR"
		},
		{
			"bufferView":8,
			"componentType":5126,
			"count":192,
			"max":[
				2,
				1.5,
				2
			],
			"min":[
				-2,
				-1.5,
				-2
			],
			"type":"VEC3"
		},
		{
			"bufferView":9,
			"componentType":5126,
			"count":192,
			"type":"VEC3"
		},
		{
			"bufferView":10,
			"componentType":5126,
			"count":192,
			"type":"VEC2"
		},
		{
			"bufferView":11,
			"componentType":5123,
			"count":372,
			"type":"SCALAR"
		}
	],
	"bufferViews":[
		{
			"buffer":0,
			"byteLength":4248,
			"byteOffset":0,
			"target":34962
		},
		{
			"buffer":0,
			"byteLength":4248,
			"byteOffset":4248,
			"target":34962
		},
		{
			"buffer":0,
			"byteLength":2832,
			"byteOffset":8496,
			"target":34962
		},
		{
			"buffer":0,
			"byteLength":1380,
			"byteOffset":11328,
			"target":34963
		},
		{
			"buffer":0,
			"byteLength":336,
			"byteOffset":12708,
			"target":34962
		},
		{
			"buffer":0,
			"byteLength":336,
			"byteOffset":13044,
			"target":34962
		},
		{
			"buffer":0,
			"byteLength":224,
			"byteOffset":13380,
			"target":34962
		},
		{
			"buffer":0,
			"byteLength":144,
			"byteOffset":13604,
			"target":34963
		},
		{
			"buffer":0,
			"byteLength":2304,
			"byteOffset":13748,
			"target":34962
		},
		{
			"buffer":0,
			"byteLength":2304,
			"byteOffset":16052,
			"target":34962
		},
		{
			"buffer":0,
			"byteLength":1536,
			"byteOffset":18356,
			"target":34962
		},
		{
			"buffer":0,
			"byteLength":744,
			"byteOffset":19892,
			"target":34963
		}
	],
	"buffers":[
		{
			"byteLength":20636,
			"uri":"garden_prop.bin"
		}
	]
}
