{
	"asset":{
		"generator":"Khronos glTF Blender I/O v5.0.21",
		"version":"2.0"
	},
	"scene":0,
	"scenes":[
		{
			"name":"Scene",
			"nodes":[
				0,
				1,
				2,
				3
			]
		}
	],
	"nodes":[
		{
			"extras":{
				"collision":"simple"
			},
			"mesh":0,
			"name":"Cube"
		},
		{
			"extras":{
				"collision":"cylinder",
				"center_x":0.0,
				"center_z":0.0,
				"center_y":0.0,
				"height":"0.8",
				"radius":"0.75"
			},
			"mesh":1,
			"name":"Cylinder",
			"translation":[
				0,
				-0.9711513519287109,
				0
			]
		},
		{
			"extras":{
				"collision":"cylinder",
				"center_x":0.0,
				"center_z":0.0,
				"center_y":0.0,
				"height":"1.0715",
				"radius":"0.25"
			},
			"mesh":2,
			"name":"Cylinder.001",
			"translation":[
				0,
				-0.8283877372741699,
				-1.0915604829788208
			]
		},
		{
			"extras":{
				"collision":"cylinder",
				"center_x":0.0,
				"center_z":-2.9802322387695312e-08,
				"center_y":0.0,
				"height":"1.0715",
				"radius":"0.25"
			},
			"mesh":3,
			"name":"Cylinder.002",
			"rotation":[
				0,
				-1,
				0,
				1.6292068494294654e-07
			],
			"translation":[
				0,
				-0.8283877372741699,
				1.0839720964431763
			]
		}
	],
	"meshes":[
		{
			"name":"Cube.001",
			"primitives":[
				{
					"attributes":{
						"POSITION":0,
						"NORMAL":1,
						"TEXCOORD_0":2
					},
					"indices":3
				}
			]
		},
		{
			"name":"Cylinder",
			"primitives":[
				{
					"attributes":{
						"POSITION":4,
						"NORMAL":5,
						"TEXCOORD_0":6
					},
					"indices":7
				}
			]
		},
		{
			"name":"Cylinder.001",
			"primitives":[
				{
					"attributes":{
						"POSITION":8,
						"NORMAL":9,
						"TEXCOORD_0":10
					},
					"indices":11
				}
			]
		},
		{
			"name":"Cylinder.002",
			"primitives":[
				{
					"attributes":{
						"POSITION":12,
						"NORMAL":13,
						"TEXCOORD_0":14
					},
					"indices":11
				}
			]
		}
	],
	"accessors":[
		{
			"bufferView":0,
			"componentType":5126,
			"count":112,
			"max":[
				3.8499999046325684,
				1.350000023841858,
				3.8499999046325684
			],
			"min":[
				-3.8499999046325684,
				-1.3751658201217651,
				-3.8499999046325684
			],
			"type":"VEC3"
		},
		{
			"bufferView":1,
			"componentType":5126,
			"count":112,
			"type":"VEC3"
		},
		{
			"bufferView":2,
			"componentType":5126,
			"count":112,
			"type":"VEC2"
		},
		{
			"bufferView":3,
			"componentType":5123,
			"count":348,
			"type":"SCALAR"
		},
		{
			"bufferView":4,
			"componentType":5126,
			"count":192,
			"max":[
				0.75,
				0.4000000059604645,
				0.75
			],
			"min":[
				-0.75,
				-0.4000000059604645,
				-0.75
			],
			"type":"VEC3"
		},
		{
			"bufferView":5,
			"componentType":5126,
			"count":192,
			"type":"VEC3"
		},
		{
			"bufferView":6,
			"componentType":5126,
			"count":192,
			"type":"VEC2"
		},
		{
			"bufferView":7,
			"componentType":5123,
			"count":372,
			"type":"SCALAR"
		},
		{
			"bufferView":8,
			"componentType":5126,
			"count":119,
			"max":[
				0.25,
				0.535773515701294,
				0.25
			],
			"min":[
				-0.25,
				-0.535773515701294,
				-0.25
			],
			"type":"VEC3"
		},
		{
			"bufferView":9,
			"componentType":5126,
			"count":119,
			"type":"VEC3"
		},
		{
			"bufferView":10,
			"componentType":5126,
			"count":119,
			"type":"VEC2"
		},
		{
			"bufferView":11,
			"componentType":5123,
			"count":234,
			"type":"SCALAR"
		},
		{
			"bufferView":12,
			"componentType":5126,
			"count":119,
			"max":[
				0.25,
				0.535773515701294,
				0.25
			],
			"min":[
				-0.25,
				-0.535773515701294,
				-0.25
			],
			"type":"VEC3"
		},
		{
			"bufferView":13,
			"componentType":5126,
			"count":119,
			"type":"VEC3"
		},
		{
			"bufferView":14,
			"componentType":5126,
			"count":119,
			"type":"VEC2"
		}
	],
	"bufferViews":[
		{
			"buffer":0,
			"byteLength":1344,
			"byteOffset":0,
			"target":34962
		},
		{
			"buffer":0,
			"byteLength":1344,
			"byteOffset":1344,
			"target":34962
		},
		{
			"buffer":0,
			"byteLength":896,
			"byteOffset":2688,
			"target":34962
		},
		{
			"buffer":0,
			"byteLength":696,
			"byteOffset":3584,
			"target":34963
		},
		{
			"buffer":0,
			"byteLength":2304,
			"byteOffset":4280,
			"target":34962
		},
		{
			"buffer":0,
			"byteLength":2304,
			"byteOffset":6584,
			"target":34962
		},
		{
			"buffer":0,
			"byteLength":1536,
			"byteOffset":8888,
			"target":34962
		},
		{
			"buffer":0,
			"byteLength":744,
			"byteOffset":10424,
			"target":34963
		},
		{
			"buffer":0,
			"byteLength":1428,
			"byteOffset":11168,
			"target":34962
		},
		{
			"buffer":0,
			"byteLength":1428,
			"byteOffset":12596,
			"target":34962
		},
		{
			"buffer":0,
			"byteLength":952,
			"byteOffset":14024,
			"target":34962
		},
		{
			"buffer":0,
			"byteLength":468,
			"byteOffset":14976,
			"target":34963
		},
		{
			"buffer":0,
			"byteLength":1428,
			"byteOffset":15444,
			"target":34962
		},
		{
			"buffer":0,
			"byteLength":1428,
			"byteOffset":16872,
			"target":34962
		},
		{
			"buffer":0,
			"byteLength":952,
			"byteOffset":18300,
			"target":34962
		}
	],
	"buffers":[
		{
			"byteLength":19252,
			"uri":"kitchen_prop.bin"
		}
	]
}
