{
	"asset":{
		"generator":"Khronos glTF Blender I/O v5.0.21",
		"version":"2.0"
	},
	"scene":0,
	"scenes":[
		{
			"extras":{
				"uuid":"9cd89221-6a02-436c-b65a-e1c5e2c7a8ba",
				"assets reported":{}
			},
			"name":"Scene",
			"nodes":[
				0
			]
		}
	],
	"nodes":[
		{
			"extras":{
				"collision":"bodyonly-c"
			},
			"mesh":0,
			"name":"piccone"
		}
	],
	"materials":[
		{
			"doubleSided":true,
			"name":"legno",
			"pbrMetallicRoughness":{
				"baseColorFactor":[
					0.04205156862735748,
					0.01778886839747429,
					0,
					1
				],
				"metallicFactor":0,
				"roughnessFactor":0.7136363983154297
			}
		},
		{
			"doubleSided":true,
			"name":"ferro",
			"pbrMetallicRoughness":{
				"baseColorFactor":[
					0.06823298335075378,
					0.11775323748588562,
					0.14026162028312683,
					1
				],
				"roughnessFactor":0.38181817531585693
			}
		}
	],
	"meshes":[
		{
			"name":"Circle",
			"primitives":[
				{
					"attributes":{
						"POSITION":0,
						"NORMAL":1,
						"TEXCOORD_0":2
					},
					"indices":3,
					"material":0
				},
				{
					"attributes":{
						"POSITION":4,
						"NORMAL":5,
						"TEXCOORD_0":6
					},
					"indices":7,
					"material":1
				}
			]
		}
	],
	"accessors":[
		{
			"bufferView":0,
			"componentType":5126,
			"count":304,
			"max":[
				22.40123176574707,
				51.53133773803711,
				0.8213731050491333
			],
			"min":[
				18.826026916503906,
				-0.8301279544830322,
				-0.8213731050491333
			],
			"type":"VEC3"
		},
		{
			"bufferView":1,
			"componentType":5126,
			"count":304,
			"type":"VEC3"
		},
		{
			"bufferView":2,
			"componentType":5126,
			"count":304,
			"type":"VEC2"
		},
		{
			"bufferView":3,
			"componentType":5123,
			"count":468,
			"type":"SCALAR"
		},
		{
			"bufferView":4,
			"componentType":5126,
			"count":336,
			"max":[
				40.90148162841797,
				50.7206916809082,
				1.5511174201965332
			],
			"min":[
				1.0961933135986328,
				39.50901412963867,
				-1.5511174201965332
			],
			"type":"VEC3"
		},
		{
			"bufferView":5,
			"componentType":5126,
			"count":336,
			"type":"VEC3"
		},
		{
			"bufferView":6,
			"componentType":5126,
			"count":336,
			"type":"VEC2"
		},
		{
			"bufferView":7,
			"componentType":5123,
			"count":528,
			"type":"SCALAR"
		}
	],
	"bufferViews":[
		{
			"buffer":0,
			"byteLength":3648,
			"byteOffset":0,
			"target":34962
		},
		{
			"buffer":0,
			"byteLength":3648,
			"byteOffset":3648,
			"target":34962
		},
		{
			"buffer":0,
			"byteLength":2432,
			"byteOffset":7296,
			"target":34962
		},
		{
			"buffer":0,
			"byteLength":936,
			"byteOffset":9728,
			"target":34963
		},
		{
			"buffer":0,
			"byteLength":4032,
			"byteOffset":10664,
			"target":34962
		},
		{
			"buffer":0,
			"byteLength":4032,
			"byteOffset":14696,
			"target":34962
		},
		{
			"buffer":0,
			"byteLength":2688,
			"byteOffset":18728,
			"target":34962
		},
		{
			"buffer":0,
			"byteLength":1056,
			"byteOffset":21416,
			"target":34963
		}
	],
	"buffers":[
		{
			"byteLength":22472,
			"uri":"pickaxe.bin"
		}
	]
}
